<mxfile host="app.diagrams.net" agent="Mozilla/5.0 (Windows NT 10.0; Win64; x64) AppleWebKit/537.36 (KHTML, like Gecko) Chrome/131.0.0.0 Safari/537.36" version="25.0.3">
  <diagram name="Trang-1" id="EF-8JazOQYwHL1HenjOb">
    <mxGraphModel dx="1434" dy="746" grid="1" gridSize="10" guides="1" tooltips="1" connect="1" arrows="1" fold="1" page="1" pageScale="1" pageWidth="827" pageHeight="1169" math="0" shadow="0">
      <root>
        <mxCell id="0" />
        <mxCell id="1" parent="0" />
        <mxCell id="BtjMOobJEhLVUmJDqAIJ-3" value="" style="edgeStyle=orthogonalEdgeStyle;rounded=0;orthogonalLoop=1;jettySize=auto;html=1;" edge="1" parent="1" source="BtjMOobJEhLVUmJDqAIJ-1" target="BtjMOobJEhLVUmJDqAIJ-2">
          <mxGeometry relative="1" as="geometry" />
        </mxCell>
        <mxCell id="BtjMOobJEhLVUmJDqAIJ-1" value="START" style="strokeWidth=2;html=1;shape=mxgraph.flowchart.start_1;whiteSpace=wrap;" vertex="1" parent="1">
          <mxGeometry x="350" y="40" width="100" height="60" as="geometry" />
        </mxCell>
        <mxCell id="BtjMOobJEhLVUmJDqAIJ-5" value="" style="edgeStyle=orthogonalEdgeStyle;rounded=0;orthogonalLoop=1;jettySize=auto;html=1;" edge="1" parent="1" source="BtjMOobJEhLVUmJDqAIJ-2" target="BtjMOobJEhLVUmJDqAIJ-4">
          <mxGeometry relative="1" as="geometry" />
        </mxCell>
        <mxCell id="BtjMOobJEhLVUmJDqAIJ-2" value="n" style="whiteSpace=wrap;html=1;strokeWidth=2;" vertex="1" parent="1">
          <mxGeometry x="340" y="180" width="120" height="60" as="geometry" />
        </mxCell>
        <mxCell id="BtjMOobJEhLVUmJDqAIJ-7" value="" style="edgeStyle=orthogonalEdgeStyle;rounded=0;orthogonalLoop=1;jettySize=auto;html=1;" edge="1" parent="1" source="BtjMOobJEhLVUmJDqAIJ-4" target="BtjMOobJEhLVUmJDqAIJ-6">
          <mxGeometry relative="1" as="geometry" />
        </mxCell>
        <mxCell id="BtjMOobJEhLVUmJDqAIJ-12" style="edgeStyle=orthogonalEdgeStyle;rounded=0;orthogonalLoop=1;jettySize=auto;html=1;exitX=0;exitY=0.5;exitDx=0;exitDy=0;entryX=0;entryY=0.5;entryDx=0;entryDy=0;" edge="1" parent="1" source="BtjMOobJEhLVUmJDqAIJ-4" target="BtjMOobJEhLVUmJDqAIJ-8">
          <mxGeometry relative="1" as="geometry">
            <mxPoint x="280" y="650" as="targetPoint" />
            <Array as="points">
              <mxPoint x="280" y="350" />
              <mxPoint x="280" y="650" />
            </Array>
          </mxGeometry>
        </mxCell>
        <mxCell id="BtjMOobJEhLVUmJDqAIJ-15" value="sai" style="edgeLabel;html=1;align=center;verticalAlign=middle;resizable=0;points=[];" vertex="1" connectable="0" parent="BtjMOobJEhLVUmJDqAIJ-12">
          <mxGeometry x="0.014" y="-1" relative="1" as="geometry">
            <mxPoint as="offset" />
          </mxGeometry>
        </mxCell>
        <mxCell id="BtjMOobJEhLVUmJDqAIJ-13" style="edgeStyle=orthogonalEdgeStyle;rounded=0;orthogonalLoop=1;jettySize=auto;html=1;exitX=1;exitY=0.5;exitDx=0;exitDy=0;entryX=1;entryY=0.75;entryDx=0;entryDy=0;" edge="1" parent="1" source="BtjMOobJEhLVUmJDqAIJ-4" target="BtjMOobJEhLVUmJDqAIJ-6">
          <mxGeometry relative="1" as="geometry">
            <mxPoint x="520" y="520" as="targetPoint" />
            <Array as="points">
              <mxPoint x="510" y="350" />
              <mxPoint x="510" y="525" />
            </Array>
          </mxGeometry>
        </mxCell>
        <mxCell id="BtjMOobJEhLVUmJDqAIJ-14" value="đúng" style="edgeLabel;html=1;align=center;verticalAlign=middle;resizable=0;points=[];" vertex="1" connectable="0" parent="BtjMOobJEhLVUmJDqAIJ-13">
          <mxGeometry x="0.0175" y="-1" relative="1" as="geometry">
            <mxPoint as="offset" />
          </mxGeometry>
        </mxCell>
        <mxCell id="BtjMOobJEhLVUmJDqAIJ-4" value="n % 2 == 0" style="rhombus;whiteSpace=wrap;html=1;strokeWidth=2;" vertex="1" parent="1">
          <mxGeometry x="350" y="310" width="100" height="80" as="geometry" />
        </mxCell>
        <mxCell id="BtjMOobJEhLVUmJDqAIJ-9" value="" style="edgeStyle=orthogonalEdgeStyle;rounded=0;orthogonalLoop=1;jettySize=auto;html=1;" edge="1" parent="1" source="BtjMOobJEhLVUmJDqAIJ-6" target="BtjMOobJEhLVUmJDqAIJ-8">
          <mxGeometry relative="1" as="geometry" />
        </mxCell>
        <mxCell id="BtjMOobJEhLVUmJDqAIJ-6" value="chẵn" style="whiteSpace=wrap;html=1;strokeWidth=2;" vertex="1" parent="1">
          <mxGeometry x="340" y="480" width="120" height="60" as="geometry" />
        </mxCell>
        <mxCell id="BtjMOobJEhLVUmJDqAIJ-11" style="edgeStyle=orthogonalEdgeStyle;rounded=0;orthogonalLoop=1;jettySize=auto;html=1;" edge="1" parent="1" source="BtjMOobJEhLVUmJDqAIJ-8" target="BtjMOobJEhLVUmJDqAIJ-10">
          <mxGeometry relative="1" as="geometry" />
        </mxCell>
        <mxCell id="BtjMOobJEhLVUmJDqAIJ-8" value="lẻ" style="whiteSpace=wrap;html=1;strokeWidth=2;" vertex="1" parent="1">
          <mxGeometry x="340" y="620" width="120" height="60" as="geometry" />
        </mxCell>
        <mxCell id="BtjMOobJEhLVUmJDqAIJ-10" value="END" style="strokeWidth=2;html=1;shape=mxgraph.flowchart.start_1;whiteSpace=wrap;" vertex="1" parent="1">
          <mxGeometry x="350" y="730" width="100" height="60" as="geometry" />
        </mxCell>
      </root>
    </mxGraphModel>
  </diagram>
</mxfile>
